<svg id="Layer_1" data-name="Layer 1" xmlns="http://www.w3.org/2000/svg" viewBox="0 0 107.26 45"><title>Artboard 1</title><path d="M47.05,32.91c-.06-.3-.18-.32-.42-.31s-.19.21-.19.34c0,1.87,0,3.73,0,5.6h0c0,1.57,0,3.14,0,4.71l3.78-3.48A14.63,14.63,0,0,1,47.05,32.91Z" style="fill:#ef4c7d"/><path d="M63.7,25.23c-1.53-.71-3.12-1.31-4.63-2.05A35,35,0,0,1,54.94,21a5.13,5.13,0,0,1-1.25-7,5.23,5.23,0,0,1,3.55-2c.27,0,.29-.17.28-.3h0v-.43a.07.07,0,0,0-.07-.07h-.26a11.9,11.9,0,0,0-6,1.57,9.83,9.83,0,0,0-1.1,16.55,36.13,36.13,0,0,0,6,3.32c.42.18.83.37,1.24.57L65.15,26C64.68,25.7,64.19,25.46,63.7,25.23Z" style="fill:#ef4c7d"/><path d="M63,12.23a4.38,4.38,0,0,0-3.11,5,4.42,4.42,0,0,0,8.47.88,6.39,6.39,0,0,0,.22-3.49,12.52,12.52,0,0,0-3.15-6.32A22,22,0,0,0,57.74,3,35.84,35.84,0,0,0,44.21,0a29.83,29.83,0,0,0-8.67,1A33.75,33.75,0,0,0,14,17.59c-.32.56-.61,1.15-.92,1.73-.08-.09,0-.18,0-.26,0-2.2,0-4.4,0-6.6,0-.32-.06-.41-.4-.41H.23c-.16,0-.21,0-.23.21s.05.31.29.35A4.09,4.09,0,0,1,4,16.69c0,7.74,0,15.47,0,23.21a3.92,3.92,0,0,1-2.75,3.86A6.11,6.11,0,0,1,.25,44C0,44,0,44.13,0,44.33s.15.21.3.21H16.75c.26,0,.29-.09.3-.32s-.26-.23-.4-.26a4.06,4.06,0,0,1-3.56-4.32c-.05-2.29,0-4.58,0-6.87a34.42,34.42,0,0,1,.51-6.08A30.69,30.69,0,0,1,18.25,15a31.6,31.6,0,0,1,8.89-8.81A27,27,0,0,1,40,1.79a30.31,30.31,0,0,1,7.73.29A25.12,25.12,0,0,1,57.81,5.91a14.89,14.89,0,0,1,5.32,5.92C63.23,12.05,63.24,12.14,63,12.23Z" style="fill:#ef4c7d"/><path d="M40.62,12.61c.24,0,.27-.13.27-.34s-.18-.21-.32-.21H24.15c-.13,0-.33,0-.33.2s0,.35.29.35a1.4,1.4,0,0,1,.4.07,4,4,0,0,1,3.27,3.88c0,7.82,0,15.64,0,23.46a3.79,3.79,0,0,1-2,3.43,4.46,4.46,0,0,1-1.58.52c-.27,0-.36.12-.33.39s.24.17.36.17H40.56c.13,0,.34.09.33-.2s0-.31-.29-.35a4.11,4.11,0,0,1-3.68-4.47q0-11.25,0-22.5A4.08,4.08,0,0,1,40.62,12.61Z" style="fill:#ef4c7d"/><path d="M46.77,44.5c.16,0,.24-.13.33-.22l2.09-2.13c.13-.13.21-.23.42-.07a14.34,14.34,0,0,0,11.79,2.6,10.58,10.58,0,0,0,8.85-10.77A8,8,0,0,0,67.91,28a12.4,12.4,0,0,0-2.76-2l-7.81,7.2A15.77,15.77,0,0,1,61.56,36a5.22,5.22,0,0,1,1.66,4.65,3.73,3.73,0,0,1-3.41,3.43,9.47,9.47,0,0,1-6.24-1.43,14.34,14.34,0,0,1-3.39-2.9L46.4,43.25c0,.31,0,.62,0,.92S46.53,44.51,46.77,44.5Z" style="fill:#fff"/><path d="M102.14,16.25a15.86,15.86,0,0,0-11.2-4.51,17.77,17.77,0,0,0-2.76.19c-.35.06-.71.1-1.06.18a15.31,15.31,0,0,0-11,9.19,17.63,17.63,0,0,0-1,10.78,15.33,15.33,0,0,0,8.6,11.17A15.76,15.76,0,0,0,94,44.49a15.29,15.29,0,0,0,11.88-10.06,17.42,17.42,0,0,0,.71-9.93A15.23,15.23,0,0,0,102.14,16.25ZM98.51,35.81a9.47,9.47,0,0,1-3.06,5.24,6.87,6.87,0,0,1-4.94,1.57c-3.62-.19-5.77-2.25-7-5.48A16.06,16.06,0,0,1,82.63,33a44.56,44.56,0,0,1-.21-5.66,24.58,24.58,0,0,1,1.09-7.52,9.91,9.91,0,0,1,2.28-4,7,7,0,0,1,5.82-2c3.69.31,5.92,2.74,6.89,6.2a25.6,25.6,0,0,1,.77,6.64v1.27A32.09,32.09,0,0,1,98.51,35.81Z" style="fill:#fff"/></svg>
